<svg aria-hidden="true" style="position: absolute; width: 0; height: 0; overflow: hidden;" version="1.1" xmlns="http://www.w3.org/2000/svg" xmlns:xlink="http://www.w3.org/1999/xlink">
<defs>
<symbol id="icon-globe" viewBox="0 0 24 24">
<title>globe</title>
<path d="M16.951 11c-0.214-2.69-1.102-5.353-2.674-7.71 1.57 0.409 2.973 1.232 4.087 2.346 1.408 1.408 2.351 3.278 2.581 5.364zM14.279 20.709c1.483-2.226 2.436-4.853 2.669-7.709h3.997c-0.23 2.086-1.173 3.956-2.581 5.364-1.113 1.113-2.516 1.936-4.085 2.345zM7.049 13c0.214 2.69 1.102 5.353 2.674 7.71-1.57-0.409-2.973-1.232-4.087-2.346-1.408-1.408-2.351-3.278-2.581-5.364zM9.721 3.291c-1.482 2.226-2.436 4.853-2.669 7.709h-3.997c0.23-2.086 1.173-3.956 2.581-5.364 1.114-1.113 2.516-1.936 4.085-2.345zM11.997 1c-3.036 0.001-5.786 1.233-7.775 3.222-1.99 1.989-3.222 4.741-3.222 7.778s1.232 5.789 3.222 7.778c1.988 1.989 4.738 3.221 7.774 3.222 0.001 0 0.003 0 0.004 0s0.002 0 0.003 0c3.036-0.001 5.786-1.233 7.775-3.222 1.99-1.989 3.222-4.741 3.222-7.778s-1.232-5.789-3.222-7.778c-1.988-1.989-4.738-3.221-7.774-3.222-0.001 0-0.003 0-0.004 0s-0.002 0-0.003 0zM14.946 13c-0.252 2.788-1.316 5.36-2.945 7.451-1.729-2.221-2.706-4.818-2.945-7.451zM11.999 3.549c1.729 2.221 2.706 4.818 2.945 7.451h-5.89c0.252-2.788 1.316-5.36 2.945-7.451z"></path>
</symbol>
<symbol id="icon-plus" viewBox="0 0 24 24">
<title>plus</title>
<path d="M5 13h6v6c0 0.552 0.448 1 1 1s1-0.448 1-1v-6h6c0.552 0 1-0.448 1-1s-0.448-1-1-1h-6v-6c0-0.552-0.448-1-1-1s-1 0.448-1 1v6h-6c-0.552 0-1 0.448-1 1s0.448 1 1 1z"></path>
</symbol>
<symbol id="icon-global" viewBox="0 0 32 32">
<title>global</title>
<path d="M0.034 16.668c0.354 8.511 7.369 15.332 15.966 15.332s15.612-6.821 15.966-15.332c0.019-0.053 0.034-0.108 0.034-0.168 0-0.036-0.013-0.067-0.020-0.1 0.003-0.134 0.020-0.265 0.020-0.4 0-8.822-7.178-16-16-16s-16 7.178-16 16c0 0.135 0.017 0.266 0.020 0.4-0.007 0.033-0.020 0.064-0.020 0.1 0 0.060 0.015 0.115 0.034 0.168zM24.921 22.742c-1.319-0.552-2.735-0.979-4.215-1.271 0.158-1.453 0.251-2.962 0.28-4.47h4.98c-0.091 2.054-0.456 3.993-1.045 5.741zM26.965 17h3.984c-0.186 2.806-1.138 5.403-2.663 7.579-0.759-0.533-1.577-1.019-2.457-1.44 0.645-1.869 1.042-3.943 1.136-6.139zM12.389 22.286c1.178-0.184 2.387-0.286 3.611-0.286s2.433 0.102 3.61 0.286c-0.694 5.335-2.21 8.714-3.61 8.714s-2.916-3.379-3.611-8.714zM13.908 30.664c-2.751-0.882-5.078-3.471-6.482-6.984 1.246-0.525 2.586-0.935 3.99-1.217 0.459 3.496 1.298 6.542 2.492 8.201zM12.274 10.709c1.217 0.188 2.465 0.291 3.726 0.291s2.509-0.103 3.726-0.291c0.172 1.62 0.274 3.388 0.274 5.291h-8c0-1.903 0.102-3.671 0.274-5.291zM19.985 17c-0.028 1.525-0.118 2.961-0.26 4.291-1.216-0.188-2.463-0.291-3.725-0.291s-2.509 0.103-3.726 0.291c-0.173-1.626-0.237-3.057-0.26-4.291h7.971zM20.585 22.463c1.404 0.282 2.743 0.692 3.99 1.217-1.404 3.513-3.731 6.102-6.482 6.984 1.193-1.659 2.032-4.705 2.492-8.201zM21 16c0-1.836-0.102-3.696-0.294-5.47 1.48-0.292 2.896-0.72 4.215-1.271 0.684 2.029 1.079 4.315 1.079 6.741h-5zM20.585 9.537c-0.46-3.496-1.298-6.543-2.493-8.201 2.751 0.882 5.078 3.471 6.482 6.984-1.246 0.525-2.585 0.936-3.989 1.217zM19.611 9.714c-1.178 0.184-2.387 0.286-3.611 0.286s-2.433-0.102-3.611-0.286c0.695-5.335 2.211-8.714 3.611-8.714s2.916 3.379 3.611 8.714zM11.415 9.537c-1.404-0.282-2.743-0.692-3.99-1.217 1.404-3.513 3.731-6.102 6.482-6.984-1.193 1.659-2.032 4.705-2.492 8.201zM11.294 10.53c-0.192 1.774-0.294 3.634-0.294 5.47h-5c0-2.426 0.395-4.712 1.079-6.742 1.319 0.552 2.735 0.979 4.215 1.272zM11.014 17c0.029 1.508 0.122 3.017 0.28 4.471-1.48 0.292-2.896 0.72-4.215 1.271-0.589-1.748-0.954-3.687-1.045-5.742h4.98zM6.17 23.139c-0.88 0.422-1.697 0.907-2.456 1.44-1.525-2.176-2.477-4.772-2.663-7.579h3.984c0.094 2.196 0.491 4.27 1.135 6.139zM4.313 25.38c0.685-0.479 1.417-0.922 2.207-1.305 1.004 2.485 2.449 4.548 4.186 5.943-2.526-0.958-4.729-2.568-6.393-4.638zM21.294 30.017c1.738-1.394 3.182-3.458 4.186-5.943 0.79 0.384 1.522 0.826 2.207 1.305-1.664 2.071-3.867 3.681-6.393 4.638zM27 16c0-2.567-0.428-4.987-1.17-7.139 0.88-0.422 1.698-0.907 2.457-1.44 1.704 2.434 2.713 5.389 2.713 8.579h-4zM27.688 6.62c-0.685 0.479-1.417 0.921-2.207 1.305-1.004-2.485-2.449-4.549-4.186-5.943 2.525 0.958 4.728 2.568 6.393 4.638zM10.706 1.983c-1.738 1.394-3.182 3.458-4.186 5.943-0.791-0.384-1.522-0.827-2.207-1.306 1.664-2.070 3.867-3.68 6.393-4.637zM3.714 7.421c0.758 0.533 1.576 1.018 2.456 1.44-0.742 2.152-1.17 4.572-1.17 7.139h-4c0-3.19 1.009-6.145 2.714-8.579z"></path>
</symbol>
<symbol id="icon-magnifying-glass" viewBox="0 0 32 32">
<title>magnifying-glass</title>
<path d="M10.5 0c-5.79 0-10.5 4.71-10.5 10.5s4.71 10.5 10.5 10.5c2.725 0 5.203-1.052 7.071-2.76 0.022 0.039 0.042 0.080 0.076 0.114l2.151 2.151c-0.18 0.304-0.282 0.648-0.282 1.011 0 0.534 0.208 1.036 0.586 1.414l8.485 8.485c0.377 0.377 0.879 0.585 1.413 0.585s1.036-0.208 1.414-0.586 0.586-0.88 0.586-1.414-0.208-1.036-0.586-1.414l-8.485-8.485c-0.634-0.634-1.659-0.729-2.42-0.299l-2.155-2.155c-0.034-0.034-0.074-0.054-0.114-0.076 1.708-1.868 2.76-4.346 2.76-7.071 0-5.79-4.71-10.5-10.5-10.5zM22.222 20.808l8.485 8.485c0.189 0.189 0.293 0.44 0.293 0.707s-0.104 0.518-0.293 0.707c-0.379 0.377-1.035 0.377-1.414 0l-8.485-8.485c-0.188-0.189-0.293-0.44-0.293-0.707s0.104-0.518 0.293-0.707c0.189-0.188 0.44-0.293 0.707-0.293s0.517 0.104 0.707 0.293zM10.5 20c-5.238 0-9.5-4.262-9.5-9.5s4.262-9.5 9.5-9.5 9.5 4.262 9.5 9.5-4.262 9.5-9.5 9.5zM10.5 3c-4.136 0-7.5 3.364-7.5 7.5s3.364 7.5 7.5 7.5 7.5-3.364 7.5-7.5-3.364-7.5-7.5-7.5zM10.5 17c-3.584 0-6.5-2.916-6.5-6.5s2.916-6.5 6.5-6.5 6.5 2.916 6.5 6.5-2.916 6.5-6.5 6.5z"></path>
</symbol>
</defs>
</svg>
